<?xml version="1.0" standalone="no"?>
<!DOCTYPE svg PUBLIC "-//W3C//DTD SVG 20010904//EN"
 "http://www.w3.org/TR/2001/REC-SVG-20010904/DTD/svg10.dtd">
<svg version="1.0" xmlns="http://www.w3.org/2000/svg"
 width="500.000000pt" height="500.000000pt" viewBox="0 0 500.000000 500.000000"
 preserveAspectRatio="xMidYMid meet">

<g transform="translate(0.000000,500.000000) scale(0.100000,-0.100000)"
fill="#000000" stroke="none">
<path d="M0 2500 l0 -2500 2500 0 2500 0 0 2500 0 2500 -2500 0 -2500 0 0
-2500z m3000 655 c0 -36 -4 -65 -8 -65 -4 0 -34 9 -67 21 -132 46 -323 73
-607 84 l-138 5 0 -260 0 -260 -100 0 -100 0 0 270 0 270 510 0 510 0 0 -65z
m-1125 -564 c-56 -6 -60 -8 -63 -33 -3 -28 -2 -28 55 -30 l58 -2 -57 -3 c-56
-4 -58 -5 -58 -33 0 -29 0 -29 68 -33 l67 -3 -72 -2 -73 -2 0 75 0 75 68 -2
67 -1 -60 -6z m196 -121 c3 0 21 29 40 65 18 36 37 65 41 65 10 0 -69 -144
-80 -148 -9 -3 -82 127 -82 144 0 5 17 -21 38 -58 20 -37 39 -68 43 -68z m214
121 c-56 -6 -60 -8 -63 -33 -3 -28 -2 -28 55 -30 l58 -2 -57 -3 c-56 -4 -58
-5 -58 -33 0 -29 0 -29 68 -33 l67 -3 -72 -2 -73 -2 0 75 0 75 68 -2 67 -1
-60 -6z m268 -55 l3 69 2 -77 c1 -43 -1 -78 -4 -78 -4 0 -34 30 -68 67 l-61
67 -6 -70 -5 -69 -2 80 -2 79 70 -69 69 -68 4 69z m180 57 l-33 -4 0 -70 c0
-38 -3 -69 -7 -69 -5 0 -7 31 -5 69 l4 70 -39 4 c-21 2 -4 4 37 4 41 0 60 -2
43 -4z m136 -58 c19 -35 38 -62 42 -59 5 2 22 32 40 64 17 33 36 60 40 60 5 0
8 -35 7 -77 l-1 -78 -6 65 -6 65 -35 -62 c-19 -35 -38 -63 -42 -63 -4 0 -22
28 -40 62 l-33 63 -6 -65 -6 -65 -1 78 c-1 42 1 77 6 77 4 0 22 -29 41 -65z
m274 58 c-62 -4 -63 -4 -63 -33 0 -30 1 -30 58 -32 l57 -2 -57 -3 c-56 -4 -58
-5 -58 -33 0 -29 1 -29 63 -33 l62 -3 -67 -2 -68 -2 0 75 0 75 68 -2 67 -2
-62 -3z m-2083 -93 c0 -6 -75 -10 -205 -10 -130 0 -205 4 -205 10 0 6 75 10
205 10 130 0 205 -4 205 -10z m3300 0 c0 -6 -75 -10 -205 -10 -130 0 -205 4
-205 10 0 6 75 10 205 10 130 0 205 -4 205 -10z m-2180 -415 l0 -235 124 0
c249 0 482 30 649 83 l77 25 0 -69 0 -69 -525 0 -525 0 0 250 0 250 100 0 100
0 0 -235z"/>
</g>
</svg>
